<?xml version="1.0" encoding="UTF-8"?>
<svg width="2975px" height="1156px" viewBox="0 0 2975 1156" version="1.1" xmlns="http://www.w3.org/2000/svg" xmlns:xlink="http://www.w3.org/1999/xlink">
    <!-- Generator: Sketch 53.2 (72643) - https://sketchapp.com -->
    <title>Artboard</title>
    <desc>Created with Sketch.</desc>
    <g id="Artboard" stroke="none" stroke-width="1" fill="none" fill-rule="evenodd">
        <g id="Group-Copy" transform="translate(0.000000, 301.000000)" fill-rule="nonzero">
            <polygon id="Path" fill="#EF6D51" points="116 855 0 855 0 0 116.020115 0"></polygon>
            <polygon id="Path" fill="#FFFFFF" points="232.020115 352.992857 550.79023 352.992857 550.79023 0 666.810345 0 666.810345 855 550.79023 855 550.79023 462.921429 232.020115 462.921429"></polygon>
            <path d="M1244.32034,378.983101 L1174.87909,265.472464 L1337.28448,0 L1469.18103,0 L1244.32034,378.983101 L1244.32034,378.983101 Z M1181.4728,855 L1052.72989,855 L1052.72989,484.907143 L751.077586,0 L882.974138,0 L967.396997,138 L1110.12931,371.314286 L1110.13499,371.305007 L1181.4728,485.980799 L1181.4728,855 Z" id="Shape" fill="#FFFFFF"></path>
            <path d="M1670,0 L1670,855 L1554.66954,855 L1554.66954,0 L1670,0 Z M1786.02011,0 L1870.97701,0 C1954.0234,0 2027.70562,16.8962596 2092.02586,50.6892857 C2156.34611,84.4823118 2206.41745,133.746105 2242.24138,198.482143 C2278.06531,263.218181 2295.97701,339.556703 2295.97701,427.5 C2295.97701,515.443297 2278.06531,591.781819 2242.24138,656.517857 C2206.41745,721.253895 2156.34611,770.517688 2092.02586,804.310714 C2027.70562,838.10374 1954.0234,855 1870.97701,855 L1786.02011,855 L1786.02011,749.957143 L1870.97701,749.957143 C1966.23611,749.957143 2039.71478,720.84672 2091.41523,662.625 C2143.11568,604.40328 2168.96552,526.029064 2168.96552,427.5 C2168.96552,328.970936 2143.11568,250.59672 2091.41523,192.375 C2039.71478,134.15328 1966.23611,105.042857 1870.97701,105.042857 L1786.02011,105.042857 L1786.02011,0 Z" id="Shape" fill="#FFFFFF"></path>
            <polygon id="Path" fill="#FFFFFF" points="2558 855 2442.52874 855 2442.52874 0 2964.00862 0 2964.00862 105.042857 2558.54885 105.042857"></polygon>
            <polygon id="Path" fill="#33E0D8" points="2880.96264 355.435714 2880.96264 460.478571 2674.02011 460.478571 2674.02011 355.435714"></polygon>
            <polygon id="Path" fill="#FFFFFF" points="2536 749.957143 2975 749.957143 2975 855 2536 855"></polygon>
        </g>
        <path d="M1538.12108,124.465659 L1538.12108,190 L1487,190 L1487,4 L1583.78924,4 C1602.42012,4 1618.8071,6.55491951 1632.95067,11.6648352 C1647.09424,16.7747508 1657.97156,24.0349804 1665.58296,33.4457418 C1673.19436,42.8565031 1677,53.565874 1677,65.5741758 C1677,83.7995417 1668.67871,98.1709639 1652.03587,108.688874 C1635.39304,119.206783 1612.36039,124.465659 1582.93722,124.465659 L1538.12108,124.465659 Z M1537,94 L1582.53906,94 C1596.0196,94 1606.29977,91.5901043 1613.37988,86.7702407 C1620.46,81.9503771 1624,75.0649609 1624,66.1137856 C1624,56.9044033 1620.43168,49.459547 1613.29492,43.7789934 C1606.15817,38.0984399 1596.3028,35.172138 1583.72852,35 L1537,35 L1537,94 Z M1802.73457,121.910714 L1762.0582,121.910714 L1762.0582,190 L1711,190 L1711,4 L1803.07496,4 C1832.34847,4 1854.92732,8.89692905 1870.81217,18.6909341 C1886.69702,28.4849391 1894.63933,42.3240864 1894.63933,60.2087912 C1894.63933,72.8984151 1890.9802,83.48004 1883.66182,91.9539835 C1876.34344,100.427927 1865.25257,107.177173 1850.38889,112.201923 L1904,188.211538 L1904,190 L1849.19753,190 L1802.73457,121.910714 Z M1763,90 L1804.42797,90 C1817.32435,90 1827.31033,87.5438842 1834.38622,82.6315789 C1841.46211,77.7192737 1845,70.9489371 1845,62.3203661 C1845,53.5209324 1841.66183,46.6010931 1834.98539,41.5606407 C1828.30894,36.5201884 1818.06618,34 1804.25678,34 L1763,34 L1763,90 Z M2137,101.801471 C2137,120.484719 2132.66886,136.864903 2124.00645,150.942513 C2115.34404,165.020124 2102.94901,175.882315 2086.82097,183.529412 C2070.69293,191.176509 2052.2001,195 2031.34194,195 C2010.71172,195 1992.30438,191.219958 1976.11935,183.659759 C1959.93433,176.099561 1947.39682,165.302543 1938.50645,151.268382 C1929.61608,137.234221 1925.11398,121.093006 1925,102.844251 L1925,93.4592246 C1925,74.7759761 1929.41662,58.3306192 1938.25,44.1226604 C1947.08338,29.9147017 1959.5639,19.0090621 1975.69194,11.4054144 C1991.81997,3.80176679 2010.25581,0 2031,0 C2051.74419,0 2070.18003,3.80176679 2086.30806,11.4054144 C2102.4361,19.0090621 2114.91662,29.9147017 2123.75,44.1226604 C2132.58338,58.3306192 2137,74.7325273 2137,93.328877 L2137,101.801471 Z M2085,92.0548902 C2085,72.0953759 2080.32916,56.9298589 2070.98734,46.5578842 C2061.64552,36.1859096 2048.31654,31 2031,31 C2013.79738,31 2000.52536,36.1205409 1991.18354,46.3617764 C1981.84173,56.603012 1977.11392,71.6160022 1977,91.4011976 L1977,100.683633 C1977,120.12019 1981.67084,135.198549 1991.01266,145.919162 C2000.35448,156.639774 2013.79738,162 2031.34177,162 C2048.54439,162 2061.75945,156.83588 2070.98734,146.507485 C2080.21524,136.17909 2084.88608,121.122521 2085,101.337325 L2085,92.0548902 Z M2273.3347,3 L2324,3 L2324,134.121951 C2324,146.176212 2320.53791,156.821092 2313.61361,166.056911 C2306.68932,175.292729 2296.92227,182.425449 2284.31218,187.455285 C2271.70209,192.48512 2257.45965,195 2241.58444,195 C2215.57612,195 2195.31021,189.9052 2180.78608,179.715447 C2166.26195,169.525694 2159,155.108494 2159,136.463415 L2210.00307,136.463415 C2210.00307,145.742594 2212.53631,152.593474 2217.60287,157.01626 C2222.66942,161.439047 2230.6632,163.650407 2241.58444,163.650407 C2251.26719,163.650407 2258.9795,161.092167 2264.7216,155.97561 C2270.46369,150.859053 2273.3347,143.574573 2273.3347,134.121951 L2273.3347,3 Z M2517.09426,109.391484 L2419.71721,109.391484 L2419.71721,159.212912 L2534,159.212912 L2534,190 L2369,190 L2369,4 L2533.66189,4 L2533.66189,35.0425824 L2419.71721,35.0425824 L2419.71721,79.3708791 L2517.09426,79.3708791 L2517.09426,109.391484 Z M2759.65685,129.174465 C2757.71235,149.59569 2747.78983,165.671733 2729.88898,177.403075 C2711.98814,189.134417 2688.39712,195 2659.11522,195 C2627.08815,195 2601.8958,186.809908 2583.53743,170.429479 C2565.17905,154.049049 2556,131.564314 2556,102.974599 L2556,91.3736631 C2556,73.1249088 2560.23209,57.0488663 2568.69638,43.1450535 C2577.16068,29.2412406 2589.25644,18.5745692 2604.98402,11.1447193 C2620.7116,3.71486927 2638.98392,0 2659.80151,0 C2688.62588,0 2711.84516,5.86558305 2729.46005,17.5969251 C2747.07494,29.3282672 2757.25482,45.7953485 2760,66.9986631 L2708.52817,66.9986631 C2707.26997,54.745928 2702.78053,45.8606559 2695.05971,40.3425802 C2687.3389,34.8245045 2675.58629,32.065508 2659.80151,32.065508 C2642.64415,32.065508 2629.80492,36.7362501 2621.28343,46.0778743 C2612.76194,55.4194986 2608.38688,69.9096612 2608.15812,89.5487968 L2608.15812,103.887032 C2608.15812,124.395156 2612.24723,139.384979 2620.42557,148.856952 C2628.60391,158.328924 2641.50033,163.06484 2659.11522,163.06484 C2675.01438,163.06484 2686.88137,160.305843 2694.71657,154.787767 C2702.55176,149.269692 2707.04121,140.73201 2708.18503,129.174465 L2759.65685,129.174465 Z M2975,36.0425824 L2899.0371,36.0425824 L2899.0371,191 L2847.94098,191 L2847.94098,36.0425824 L2773,36.0425824 L2773,5 L2975,5 L2975,36.0425824 Z" id="PROJECT-Copy" fill="#EF6D51" fill-rule="nonzero"></path>
    </g>
</svg>